1.9Hzlow3min_grf.mot
version=1
nRows=25
nColumns 19
inDegrees=yes
endheader
time	1_ground_force_vx	1_ground_force_vy	1_ground_force_vz	1_ground_force_px	1_ground_force_py	1_ground_force_pz	1_ground_torque_x	1_ground_torque_y	1_ground_torque_z	2_ground_force_vx	2_ground_force_vy	2_ground_force_vz	2_ground_force_px	2_ground_force_py	2_ground_force_pz	2_ground_torque_x	2_ground_torque_y	2_ground_torque_z
            2.502500	          -85.162790	         1248.316096	         -118.846609	           -0.195635	            0.006185	           -0.394951	           -0.520360	            7.627433	           -0.726174	          -11.823022	         1381.407362	          121.831413	           -0.230691	            0.005586	           -0.679670	            0.005306	           -0.619974	           -0.054678
            2.503000	          -84.385158	         1248.859765	         -119.488215	           -0.195707	            0.006185	           -0.394906	           -0.493861	            7.308910	           -0.699301	          -11.347458	         1379.385210	          121.260848	           -0.230666	            0.005587	           -0.679689	            0.006300	           -0.765815	           -0.067322
            2.503500	          -83.607088	         1250.123637	         -119.897437	           -0.195816	            0.006185	           -0.394819	           -0.469243	            7.016299	           -0.672922	          -11.243371	         1376.441305	          120.687159	           -0.230633	            0.005587	           -0.679646	            0.006579	           -0.805379	           -0.070616
            2.504000	          -82.690367	         1250.304185	         -119.944792	           -0.195899	            0.006185	           -0.394799	           -0.448724	            6.784840	           -0.650887	          -10.759873	         1372.209799	          120.014853	           -0.230485	            0.005586	           -0.679458	            0.007043	           -0.898260	           -0.078563
            2.504500	          -81.819694	         1250.304943	         -120.084526	           -0.195945	            0.006185	           -0.394844	           -0.442691	            6.764858	           -0.649725	          -10.515196	         1369.266067	          119.534960	           -0.230496	            0.005586	           -0.679346	            0.006824	           -0.888543	           -0.077568
            2.505000	          -81.041070	         1251.027017	         -120.312644	           -0.195946	            0.006184	           -0.394743	           -0.445255	            6.873382	           -0.661021	          -10.411212	         1366.322756	          118.726621	           -0.230236	            0.005587	           -0.679357	            0.006090	           -0.799254	           -0.069451
            2.505500	          -80.124951	         1251.388966	         -120.588517	           -0.196011	            0.006184	           -0.394734	           -0.454717	            7.101753	           -0.684351	          -10.589677	         1363.747244	          117.872797	           -0.230252	            0.005587	           -0.679451	            0.005499	           -0.708218	           -0.061213
            2.506000	          -78.796462	         1251.030400	         -121.006062	           -0.196056	            0.006184	           -0.394724	           -0.449116	            7.130497	           -0.689698	          -10.808907	         1359.513033	          117.247726	           -0.230132	            0.005587	           -0.679219	            0.005987	           -0.752987	           -0.064939
            2.506500	          -78.064163	         1251.933670	         -121.416717	           -0.196148	            0.006184	           -0.394623	           -0.431659	            6.922625	           -0.671379	          -10.753643	         1357.121031	          116.722948	           -0.230080	            0.005588	           -0.679348	            0.006891	           -0.869613	           -0.074794
            2.507000	          -76.918631	         1251.754700	         -121.649625	           -0.196251	            0.006184	           -0.394644	           -0.403580	            6.567755	           -0.638276	          -10.740681	         1353.440895	          115.958957	           -0.229958	            0.005588	           -0.679261	            0.007478	           -0.942279	           -0.080732
            2.507500	          -76.001569	         1251.934658	         -121.559408	           -0.196309	            0.006183	           -0.394537	           -0.392467	            6.464900	           -0.627724	          -10.254607	         1348.473495	          115.096311	           -0.229846	            0.005587	           -0.679026	            0.007986	           -1.050092	           -0.089629
            2.508000	          -74.993009	         1251.214109	         -121.610855	           -0.196266	            0.006183	           -0.394510	           -0.388398	            6.480198	           -0.629838	          -10.481813	         1346.449217	          114.479126	           -0.229723	            0.005588	           -0.679212	            0.007293	           -0.936820	           -0.079651
            2.508500	          -74.581096	         1251.755938	         -121.838851	           -0.196303	            0.006183	           -0.394416	           -0.393018	            6.596342	           -0.642051	          -10.238005	         1343.691238	          113.530608	           -0.229652	            0.005588	           -0.679160	            0.006722	           -0.882241	           -0.074542
            2.509000	          -73.526603	         1251.215376	         -121.843787	           -0.196354	            0.006183	           -0.394452	           -0.400289	            6.811794	           -0.663335	          -10.263149	         1337.616084	          112.992729	           -0.229528	            0.005588	           -0.678866	            0.006609	           -0.861399	           -0.072765
            2.509500	          -72.289216	         1250.135065	         -122.080772	           -0.196311	            0.006183	           -0.394499	           -0.391642	            6.772864	           -0.661398	          -10.723337	         1335.223058	          112.233536	           -0.229366	            0.005589	           -0.678996	            0.007281	           -0.906541	           -0.076200
            2.510000	          -71.281618	         1250.317007	         -122.449350	           -0.196498	            0.006183	           -0.394384	           -0.370420	            6.497361	           -0.636317	          -10.895840	         1330.990021	          111.326877	           -0.229269	            0.005589	           -0.678871	            0.007811	           -0.954108	           -0.079804
            2.510500	          -70.135402	         1249.596043	         -122.455287	           -0.196492	            0.006182	           -0.394311	           -0.347924	            6.198925	           -0.607469	          -10.645243	         1326.389342	          110.700278	           -0.229140	            0.005589	           -0.678772	            0.008304	           -1.034659	           -0.086353
            2.511000	          -69.081575	         1248.876486	         -122.736123	           -0.196462	            0.006182	           -0.394299	           -0.333913	            6.036569	           -0.593257	          -10.400004	         1323.262367	          109.985095	           -0.229045	            0.005590	           -0.678874	            0.008508	           -1.082558	           -0.089979
            2.511500	          -68.439240	         1248.515231	         -122.555853	           -0.196498	            0.006182	           -0.394214	           -0.335728	            6.124585	           -0.601197	          -10.478164	         1318.845756	          109.030803	           -0.228926	            0.005589	           -0.678726	            0.007804	           -0.982234	           -0.081203
            2.512000	          -67.843097	         1247.433813	         -122.561970	           -0.196535	            0.006182	           -0.394205	           -0.342929	            6.305442	           -0.619518	           -9.993919	         1314.429500	          108.545553	           -0.228770	            0.005590	           -0.678663	            0.007690	           -1.011458	           -0.083526
            2.512500	          -67.017138	         1246.892026	         -122.291193	           -0.196556	            0.006182	           -0.394168	           -0.346386	            6.444710	           -0.632077	          -10.076752	         1311.302102	          107.548925	           -0.228678	            0.005590	           -0.678723	            0.007544	           -0.981741	           -0.080519
            2.513000	          -66.009358	         1245.451865	         -122.712595	           -0.196579	            0.006182	           -0.394122	           -0.333814	            6.298344	           -0.620567	          -10.204277	         1307.620956	          106.925786	           -0.228537	            0.005591	           -0.678789	            0.007841	           -1.004803	           -0.082164
            2.513500	          -64.863091	         1243.829740	         -122.768234	           -0.196558	            0.006182	           -0.394199	           -0.314570	            6.032259	           -0.595395	          -10.651275	         1301.545709	          105.918804	           -0.228285	            0.005591	           -0.678542	            0.008599	           -1.050730	           -0.085508
            2.514000	          -63.853897	         1242.747615	         -122.591966	           -0.196582	            0.006181	           -0.394076	           -0.300952	            5.857241	           -0.577793	          -10.774833	         1296.759765	          105.244787	           -0.228170	            0.005591	           -0.678447	            0.008627	           -1.038243	           -0.084264
            2.514500	          -63.028896	         1241.847006	         -122.735450	           -0.196614	            0.006181	           -0.394067	           -0.289475	            5.703467	           -0.563691	          -10.341467	         1293.448641	          104.669644	           -0.228054	            0.005592	           -0.678500	            0.008752	           -1.094705	           -0.088587
